<svg id="App_Store" data-name="App Store" xmlns="http://www.w3.org/2000/svg" xmlns:xlink="http://www.w3.org/1999/xlink" width="114" height="40.544" viewBox="0 0 114 40.544">
  <defs>
    <clipPath id="clip-path">
      <rect id="Rectangle_531" data-name="Rectangle 531" width="114" height="40.544" fill="#fed9bc"/>
    </clipPath>
  </defs>
  <g id="Group_94" data-name="Group 94" transform="translate(0 0)" clip-path="url(#clip-path)">
    <path id="Path_91" data-name="Path 91" d="M19.62,13.855h2.132a.252.252,0,1,0,0-.5H19.62a.252.252,0,0,0,0,.5m1.066,18.681a1.11,1.11,0,1,0,1.109,1.112,1.111,1.111,0,0,0-1.109-1.112m-5.439-.95H26.126V15.5H15.246ZM50.128,26.3a2.163,2.163,0,0,0-1.4.512,2.4,2.4,0,0,0-.824,1.351,2.788,2.788,0,0,0-.1.64v1.567a2.5,2.5,0,0,0,.628,1.736,2.1,2.1,0,0,0,1.635.7,2.141,2.141,0,0,0,1.842-.91,4.011,4.011,0,0,0,.657-2.4,3.864,3.864,0,0,0-.618-2.263,2.153,2.153,0,0,0-1.823-.933m38.153-.13a2.093,2.093,0,0,0-1.913,1.119,4.227,4.227,0,0,0-.564,2.256,4.16,4.16,0,0,0,.564,2.221,2.1,2.1,0,0,0,1.9,1.118,2.079,2.079,0,0,0,1.873-1.141,4.138,4.138,0,0,0,.584-2.234,4.212,4.212,0,0,0-.559-2.22,2.08,2.08,0,0,0-1.884-1.119m-27.81.13a2.161,2.161,0,0,0-1.4.512,2.411,2.411,0,0,0-.825,1.351,2.743,2.743,0,0,0-.095.64v1.567a2.507,2.507,0,0,0,.628,1.736,2.1,2.1,0,0,0,1.634.7,2.138,2.138,0,0,0,1.843-.91,4,4,0,0,0,.661-2.4,3.88,3.88,0,0,0-.62-2.263,2.161,2.161,0,0,0-1.824-.933M38.859,22.935h-.037c-.132.555-.335,1.374-.622,2.46L37.115,28.8h3.5L39.52,25.4q-.178-.526-.662-2.46m65.286,3.135a2,2,0,0,0-1.665.856,3.1,3.1,0,0,0-.62,1.623h4.357a2.875,2.875,0,0,0-.4-1.606,1.839,1.839,0,0,0-1.668-.873M48.083,16.782a.855.855,0,0,0,.029-.27v-.666c-.866-.011-1.692.168-1.692.9a.643.643,0,0,0,.7.7,1.008,1.008,0,0,0,.967-.667M36.67,13.735c-.13-.408-.239-.866-.339-1.254H36.31c-.1.388-.209.855-.318,1.254l-.517,1.653H37.2Zm69.407-.478a2.108,2.108,0,0,1,2.091,2.36,3,3,0,0,1-.04.517h-3.246a1.312,1.312,0,0,0,1.493,1.254,3.887,3.887,0,0,0,1.344-.219l.179.837a4.37,4.37,0,0,1-1.692.308,2.293,2.293,0,0,1-2.5-2.448,2.4,2.4,0,0,1,2.37-2.609m-19.43.11.059.727h.03a1.776,1.776,0,0,1,1.552-.836c.846,0,1.722.547,1.722,2.08v2.878H88.786V15.477c0-.7-.259-1.224-.926-1.224a1.028,1.028,0,0,0-.956.717,1.126,1.126,0,0,0-.059.388v2.857H85.62v-3.4c0-.558-.02-1.025-.04-1.443Zm-12.858-.11a2.108,2.108,0,0,1,2.091,2.36,2.927,2.927,0,0,1-.04.517H72.593a1.313,1.313,0,0,0,1.494,1.254,3.889,3.889,0,0,0,1.344-.219l.179.837a4.368,4.368,0,0,1-1.692.308,2.293,2.293,0,0,1-2.5-2.448,2.4,2.4,0,0,1,2.37-2.609m-5.019-2.111h1.224v7.068H68.769Zm-9.71,2.976a2.56,2.56,0,0,0-1.3.359l-.239-.8a3.483,3.483,0,0,1,1.751-.428,1.816,1.816,0,0,1,2,2.05v1.743a6.57,6.57,0,0,0,.079,1.165H60.242l-.089-.538h-.03a1.772,1.772,0,0,1-1.434.647,1.439,1.439,0,0,1-1.523-1.444c0-1.214,1.085-1.842,2.877-1.832V14.97c0-.318-.13-.847-.985-.847m-7.24-2.777a.663.663,0,1,1-.687.667.654.654,0,0,1,.687-.667m.607,6.87H51.2V13.367h1.223Zm-16.841-6.71h1.563l2.18,6.71H38l-.607-1.9H35.275l-.577,1.9H33.433ZM27.43,33.755a2.145,2.145,0,0,1-2.145,2.14H16.09a2.145,2.145,0,0,1-2.147-2.14V13.323A2.147,2.147,0,0,1,16.09,11.18h9.195a2.147,2.147,0,0,1,2.145,2.143Zm14.78.49-1.219-3.831H36.748l-1.163,3.831H33.418l4.2-13.053h2.6l4.223,13.053Zm.475-16.03h-1.2l-1.8-4.848H41l.785,2.459c.139.428.239.817.329,1.215h.03c.089-.4.2-.778.328-1.215l.777-2.459h1.284Zm2.52-1.334c0-1.214,1.085-1.842,2.878-1.832V14.97c0-.318-.13-.847-.986-.847a2.564,2.564,0,0,0-1.3.359l-.239-.8a3.487,3.487,0,0,1,1.753-.428,1.816,1.816,0,0,1,2,2.05v1.743a6.43,6.43,0,0,0,.08,1.165H48.281l-.089-.538h-.03a1.772,1.772,0,0,1-1.433.647,1.439,1.439,0,0,1-1.523-1.444m8.189,16.341a3.831,3.831,0,0,1-2.9,1.236,2.9,2.9,0,0,1-2.687-1.338v4.943h-2.09V27.926q0-1.51-.08-3.093h1.84l.115,1.491h.037a3.731,3.731,0,0,1,5.961-.365A5.2,5.2,0,0,1,54.7,29.424a5.32,5.32,0,0,1-1.308,3.8m2.177-15.006H54.348V11.148h1.224Zm8.164,15.006a3.834,3.834,0,0,1-2.9,1.236,2.9,2.9,0,0,1-2.685-1.338v4.943H56.057V27.926q0-1.51-.077-3.093h1.835l.12,1.491h.036a3.727,3.727,0,0,1,5.957-.365,5.176,5.176,0,0,1,1.114,3.466,5.323,5.323,0,0,1-1.307,3.8m1.436-14.9a1.667,1.667,0,0,1-1.533-.836h-.02l-.059.727H62.514c.021-.329.04-.866.04-1.364v-5.7h1.223v2.887H63.8a1.753,1.753,0,0,1,1.553-.776c1.185,0,2.031.986,2.021,2.459a2.322,2.322,0,0,1-2.2,2.609M75.7,33.3a5.151,5.151,0,0,1-3.557,1.141,6.241,6.241,0,0,1-3.384-.812l.486-1.743a5.846,5.846,0,0,0,3.017.813,2.868,2.868,0,0,0,1.842-.532,1.742,1.742,0,0,0,.657-1.429,1.824,1.824,0,0,0-.541-1.331,5.1,5.1,0,0,0-1.8-1.007Q69,27.122,68.995,24.661A3.292,3.292,0,0,1,70.2,22.025,4.8,4.8,0,0,1,73.409,21a6.383,6.383,0,0,1,2.964.618l-.528,1.7a5.174,5.174,0,0,0-2.5-.6,2.6,2.6,0,0,0-1.731.54,1.571,1.571,0,0,0-.522,1.186,1.616,1.616,0,0,0,.6,1.281,6.863,6.863,0,0,0,1.9,1,6.368,6.368,0,0,1,2.482,1.59,3.326,3.326,0,0,1,.794,2.263A3.488,3.488,0,0,1,75.7,33.3m7.373-6.9H80.766v4.575c0,1.161.41,1.737,1.224,1.737a3.8,3.8,0,0,0,.928-.091l.059,1.585a4.72,4.72,0,0,1-1.627.233,2.493,2.493,0,0,1-1.935-.755,3.675,3.675,0,0,1-.7-2.536V26.4H77.341V24.832h1.374V23.11l2.05-.62v2.343h2.309Zm-1.179-8.075a2.345,2.345,0,0,1-2.43-2.5,2.394,2.394,0,0,1,2.509-2.568,2.326,2.326,0,0,1,2.409,2.488,2.4,2.4,0,0,1-2.488,2.579m9.761,14.7a4.441,4.441,0,0,1-3.446,1.429A4.214,4.214,0,0,1,84.9,33.084a5.013,5.013,0,0,1-1.228-3.468,5.116,5.116,0,0,1,1.267-3.582,4.381,4.381,0,0,1,3.417-1.392,4.287,4.287,0,0,1,3.335,1.375,4.959,4.959,0,0,1,1.2,3.445,5.168,5.168,0,0,1-1.237,3.566m2.161-19.661H94.5v-.906l1.2-.339v1.245h1.165v.916H95.708v2.14c0,.6.159.9.627.9a1.6,1.6,0,0,0,.478-.05l.02.925a2.677,2.677,0,0,1-.886.13,1.4,1.4,0,0,1-1.056-.4,1.91,1.91,0,0,1-.388-1.364v-2.28h-.687Zm5.369,13.3a3.762,3.762,0,0,0-.658-.053,1.982,1.982,0,0,0-1.7.831,3.109,3.109,0,0,0-.523,1.857v4.938H94.208V27.793q0-1.617-.056-2.96h1.82l.079,1.8h.057a3.162,3.162,0,0,1,1.045-1.489,2.512,2.512,0,0,1,1.513-.5,3.291,3.291,0,0,1,.519.035ZM99.5,15.308v2.907H98.279V11.147H99.5v2.877h.02a1.617,1.617,0,0,1,.607-.547,1.721,1.721,0,0,1,.847-.219c.826,0,1.692.547,1.692,2.1v2.857h-1.225V15.488c0-.7-.26-1.235-.936-1.235a1.02,1.02,0,0,0-.955.687,1.082,1.082,0,0,0-.05.368m8.633,14.738H101.86a2.722,2.722,0,0,0,.911,2.126,3.1,3.1,0,0,0,2.051.659,6.851,6.851,0,0,0,2.537-.449l.33,1.454a7.81,7.81,0,0,1-3.159.58,4.562,4.562,0,0,1-3.434-1.286,4.757,4.757,0,0,1-1.252-3.456,5.422,5.422,0,0,1,1.162-3.548A4.022,4.022,0,0,1,104.3,24.62a3.5,3.5,0,0,1,3.079,1.509,5.1,5.1,0,0,1,.833,2.967,5.268,5.268,0,0,1-.076.951M64.9,14.213a1.138,1.138,0,0,0-1.085.9,1.428,1.428,0,0,0-.041.319v.786a1.364,1.364,0,0,0,.03.289,1.119,1.119,0,0,0,1.085.856c.767,0,1.235-.608,1.235-1.593,0-.856-.409-1.554-1.225-1.554m8.814-.119a1.2,1.2,0,0,0-1.125,1.184h2.13a1.042,1.042,0,0,0-1.005-1.184m8.227.05c-.867,0-1.215.846-1.215,1.652,0,.937.468,1.643,1.2,1.643.7,0,1.184-.677,1.184-1.662,0-.757-.338-1.633-1.175-1.633M58.381,16.752a.643.643,0,0,0,.7.7,1.006,1.006,0,0,0,.966-.667.836.836,0,0,0,.03-.27v-.666c-.866-.011-1.692.168-1.692.9m47.625-2.658a1.2,1.2,0,0,0-1.125,1.184h2.13a1.042,1.042,0,0,0-1.005-1.184" transform="translate(-4.078 -3.26)" fill="#fed9bc"/>
    <path id="Path_92" data-name="Path 92" d="M108.535,40.544H5.465A5.468,5.468,0,0,1,0,35.085V5.465A5.471,5.471,0,0,1,5.465,0h103.07A5.471,5.471,0,0,1,114,5.465v29.62a5.468,5.468,0,0,1-5.465,5.459M5.465,1.415a4.055,4.055,0,0,0-4.05,4.05v29.62a4.052,4.052,0,0,0,4.05,4.044h103.07a4.052,4.052,0,0,0,4.05-4.044V5.465a4.055,4.055,0,0,0-4.05-4.05Z" transform="translate(0 0)" fill="#fed9bc"/>
  </g>
</svg>
