<svg id="Google_Play" data-name="Google Play" xmlns="http://www.w3.org/2000/svg" xmlns:xlink="http://www.w3.org/1999/xlink" width="114" height="38.188" viewBox="0 0 114 38.188">
  <defs>
    <clipPath id="clip-path">
      <rect id="Rectangle_530" data-name="Rectangle 530" width="114" height="38.188" fill="#fed9bc"/>
    </clipPath>
  </defs>
  <g id="Group_92" data-name="Group 92" transform="translate(0 0)" clip-path="url(#clip-path)">
    <path id="Path_66" data-name="Path 66" d="M108.354,38.188H5.648A5.654,5.654,0,0,1,0,32.541V5.648A5.654,5.654,0,0,1,5.648,0H108.354A5.653,5.653,0,0,1,114,5.648V32.541a5.653,5.653,0,0,1-5.646,5.648M5.648,1.334A4.319,4.319,0,0,0,1.334,5.648V32.541a4.319,4.319,0,0,0,4.314,4.314H108.354a4.318,4.318,0,0,0,4.312-4.314V5.648a4.318,4.318,0,0,0-4.312-4.314Z" transform="translate(0 0)" fill="#fed9bc"/>
    <path id="Path_67" data-name="Path 67" d="M55.3,15.173H54.54a5.019,5.019,0,0,0-.215-.884H53.231a4.578,4.578,0,0,0-.222.884H52.3q0-.092.552-1.514a11.878,11.878,0,0,0,.552-1.566H54.3a13.016,13.016,0,0,0,.5,1.543,13.615,13.615,0,0,1,.5,1.537M54.2,13.837a13.493,13.493,0,0,1-.4-1.32h-.037q0,.092-.419,1.32Z" transform="translate(-17.414 -4.027)" fill="#fed9bc"/>
    <path id="Path_68" data-name="Path 68" d="M60.1,15.173h-.584a5.8,5.8,0,0,0-.651-1.025,5.636,5.636,0,0,1-.776-1.337h-.038a8.342,8.342,0,0,1,.059.936q0,.585.033,1.425h-.582q.035-.733.035-1.612t-.035-1.469h.7a4.443,4.443,0,0,0,.584,1,5.9,5.9,0,0,1,.715,1.261H59.6a8.9,8.9,0,0,1-.057-.947q0-.641-.033-1.316H60.1q-.033.587-.033,1.469t.033,1.612" transform="translate(-19.167 -4.027)" fill="#fed9bc"/>
    <path id="Path_69" data-name="Path 69" d="M65.211,13.519a1.747,1.747,0,0,1-.43,1.174,1.506,1.506,0,0,1-1.207.5q-.35,0-.966-.029.031-.714.031-1.611,0-.861-.031-1.469h.414c.068,0,.169,0,.3-.007s.221-.007.263-.007a1.593,1.593,0,0,1,1.239.426,1.473,1.473,0,0,1,.384,1.022m-.646.1a1.144,1.144,0,0,0-.265-.766,1.008,1.008,0,0,0-.81-.311,2.378,2.378,0,0,0-.279.021q.023.473.023.989,0,.565.024,1.121a1.546,1.546,0,0,0,.307.031.9.9,0,0,0,.754-.316,1.219,1.219,0,0,0,.245-.77" transform="translate(-20.847 -4.02)" fill="#fed9bc"/>
    <path id="Path_70" data-name="Path 70" d="M70.006,15.166h-.7a4.667,4.667,0,0,0-.421-1.035.553.553,0,0,0-.474-.2c-.091,0-.179,0-.262,0q0,.607.021,1.228h-.658q.031-.715.031-1.612,0-.861-.031-1.469h.41c.047,0,.146,0,.3-.007s.29-.007.418-.007q1.087,0,1.087.743a.834.834,0,0,1-.62.821v.035a.738.738,0,0,1,.419.372,8.227,8.227,0,0,1,.485,1.123m-.887-2.177q0-.47-.606-.471a2.076,2.076,0,0,0-.393.033q.026.366.026.956c.087,0,.16,0,.22,0q.752,0,.752-.523" transform="translate(-22.48 -4.02)" fill="#fed9bc"/>
    <path id="Path_71" data-name="Path 71" d="M74.832,13.54a1.7,1.7,0,0,1-.445,1.2,1.441,1.441,0,0,1-1.1.478,1.389,1.389,0,0,1-1.046-.439,1.545,1.545,0,0,1-.422-1.115,1.7,1.7,0,0,1,.445-1.2,1.444,1.444,0,0,1,1.1-.478,1.392,1.392,0,0,1,1.046.438,1.543,1.543,0,0,1,.421,1.117m-.653.069a1.22,1.22,0,0,0-.253-.8A.78.78,0,0,0,73.3,12.5a.722.722,0,0,0-.587.31,1.237,1.237,0,0,0-.241.783,1.217,1.217,0,0,0,.255.8.778.778,0,0,0,.623.309.719.719,0,0,0,.587-.312,1.236,1.236,0,0,0,.241-.782" transform="translate(-23.915 -3.991)" fill="#fed9bc"/>
    <path id="Path_72" data-name="Path 72" d="M78.008,15.173h-.67q.031-.733.031-1.612t-.031-1.469h.67q-.031.6-.031,1.469,0,.892.031,1.612" transform="translate(-25.752 -4.027)" fill="#fed9bc"/>
    <path id="Path_73" data-name="Path 73" d="M82.185,13.519a1.747,1.747,0,0,1-.43,1.174,1.506,1.506,0,0,1-1.207.5q-.35,0-.966-.029.031-.714.031-1.611,0-.861-.031-1.469H80c.068,0,.169,0,.3-.007s.221-.007.263-.007A1.593,1.593,0,0,1,81.8,12.5a1.473,1.473,0,0,1,.384,1.022m-.646.1a1.144,1.144,0,0,0-.265-.766,1.008,1.008,0,0,0-.81-.311,2.378,2.378,0,0,0-.279.021q.023.473.023.989,0,.565.024,1.121a1.546,1.546,0,0,0,.308.031.9.9,0,0,0,.754-.316,1.219,1.219,0,0,0,.245-.77" transform="translate(-26.499 -4.02)" fill="#fed9bc"/>
    <path id="Path_74" data-name="Path 74" d="M88.808,15.173h-.757a5.018,5.018,0,0,0-.215-.884H86.743a4.6,4.6,0,0,0-.223.884h-.712q0-.092.552-1.514a11.877,11.877,0,0,0,.552-1.566h.894a13.017,13.017,0,0,0,.5,1.543,13.615,13.615,0,0,1,.5,1.537m-1.093-1.337a13.493,13.493,0,0,1-.4-1.32h-.038q0,.092-.418,1.32Z" transform="translate(-28.572 -4.027)" fill="#fed9bc"/>
    <path id="Path_75" data-name="Path 75" d="M93.321,12.892a.922.922,0,0,1-.42.835,1.863,1.863,0,0,1-1.03.269c-.075,0-.127,0-.159,0q0,.445.026,1.174h-.665q.031-.683.031-1.612,0-.851-.031-1.469h.412c.059,0,.171,0,.336-.007s.31-.007.431-.007a1.358,1.358,0,0,1,.76.2.689.689,0,0,1,.309.618m-.61.13q0-.506-.672-.506a1.875,1.875,0,0,0-.355.035q.026.447.026,1.013c.039,0,.085,0,.137,0q.863,0,.864-.546" transform="translate(-30.325 -4.02)" fill="#fed9bc"/>
    <path id="Path_76" data-name="Path 76" d="M97.576,12.892a.923.923,0,0,1-.42.835A1.867,1.867,0,0,1,96.126,14c-.075,0-.127,0-.159,0q0,.445.026,1.174h-.665q.031-.683.031-1.612,0-.851-.031-1.469h.412c.059,0,.171,0,.336-.007s.31-.007.431-.007a1.358,1.358,0,0,1,.76.2.689.689,0,0,1,.309.618m-.61.13q0-.506-.672-.506a1.875,1.875,0,0,0-.355.035q.026.447.026,1.013c.039,0,.085,0,.137,0q.863,0,.864-.546" transform="translate(-31.742 -4.02)" fill="#fed9bc"/>
    <path id="Path_77" data-name="Path 77" d="M104.15,13.54a1.7,1.7,0,0,1-.445,1.2,1.442,1.442,0,0,1-1.1.478,1.39,1.39,0,0,1-1.046-.439,1.545,1.545,0,0,1-.422-1.115,1.7,1.7,0,0,1,.445-1.2,1.444,1.444,0,0,1,1.1-.478,1.392,1.392,0,0,1,1.046.438,1.543,1.543,0,0,1,.421,1.117m-.653.069a1.22,1.22,0,0,0-.253-.8.78.78,0,0,0-.624-.307.722.722,0,0,0-.587.31,1.237,1.237,0,0,0-.241.783,1.217,1.217,0,0,0,.255.8.777.777,0,0,0,.623.309.719.719,0,0,0,.587-.312,1.236,1.236,0,0,0,.241-.782" transform="translate(-33.677 -3.991)" fill="#fed9bc"/>
    <path id="Path_78" data-name="Path 78" d="M109.2,15.173h-.584a5.757,5.757,0,0,0-.651-1.025,5.636,5.636,0,0,1-.776-1.337h-.038a8.358,8.358,0,0,1,.059.936q0,.585.033,1.425h-.582q.035-.733.035-1.612t-.035-1.469h.7a4.443,4.443,0,0,0,.584,1,5.9,5.9,0,0,1,.715,1.261h.035a8.9,8.9,0,0,1-.057-.947q0-.641-.033-1.316h.592q-.033.587-.033,1.469t.033,1.612" transform="translate(-35.514 -4.027)" fill="#fed9bc"/>
    <path id="Path_79" data-name="Path 79" d="M63.087,28.433a4.939,4.939,0,0,1-1.361,3.655A5.3,5.3,0,0,1,57.7,33.708a5.641,5.641,0,0,1-5.688-5.719A5.64,5.64,0,0,1,57.7,22.271a5.646,5.646,0,0,1,2.248.458,4.508,4.508,0,0,1,1.712,1.223l-.963.964a3.7,3.7,0,0,0-3-1.3,4.234,4.234,0,0,0-4.251,4.374,4.3,4.3,0,0,0,7.309,3.15,3.436,3.436,0,0,0,.917-2.218H57.7V27.607h5.306a4.725,4.725,0,0,1,.076.826" transform="translate(-17.32 -7.416)" fill="#fed9bc"/>
    <path id="Path_80" data-name="Path 80" d="M70.571,28.59a3.932,3.932,0,0,1,5.536,0,4.292,4.292,0,0,1,0,5.7,3.932,3.932,0,0,1-5.536,0,4.288,4.288,0,0,1,0-5.7m1.047,4.817a2.366,2.366,0,0,0,3.44,0,3.021,3.021,0,0,0,0-3.93,2.367,2.367,0,0,0-3.44,0,3.021,3.021,0,0,0,0,3.93" transform="translate(-23.137 -9.141)" fill="#fed9bc"/>
    <path id="Path_81" data-name="Path 81" d="M82.835,28.59a3.932,3.932,0,0,1,5.536,0,4.292,4.292,0,0,1,0,5.7,3.932,3.932,0,0,1-5.536,0,4.288,4.288,0,0,1,0-5.7m1.047,4.817a2.366,2.366,0,0,0,3.441,0,3.021,3.021,0,0,0,0-3.93,2.367,2.367,0,0,0-3.441,0,3.021,3.021,0,0,0,0,3.93" transform="translate(-27.221 -9.141)" fill="#fed9bc"/>
    <path id="Path_82" data-name="Path 82" d="M97.7,38.737a3.4,3.4,0,0,1-2.172-.665,3.91,3.91,0,0,1-1.208-1.521l1.285-.535a2.107,2.107,0,0,0,.788,1.024,2.176,2.176,0,0,0,1.307.413,2.407,2.407,0,0,0,1.827-.7,2.617,2.617,0,0,0,.665-1.888V34.15h-.061a2.864,2.864,0,0,1-1.039.917,3.111,3.111,0,0,1-1.514.368,3.3,3.3,0,0,1-2.508-1.147,4.361,4.361,0,0,1,0-5.688,3.3,3.3,0,0,1,2.508-1.147,3.118,3.118,0,0,1,1.514.367,2.866,2.866,0,0,1,1.039.918h.061V27.7h1.346v7.11a3.735,3.735,0,0,1-1.117,2.929,3.932,3.932,0,0,1-2.721,1m.107-4.587a2.241,2.241,0,0,0,1.69-.734,3.144,3.144,0,0,0,0-3.945,2.3,2.3,0,0,0-3.371.007,3.1,3.1,0,0,0,0,3.93,2.236,2.236,0,0,0,1.682.742" transform="translate(-31.304 -9.141)" fill="#fed9bc"/>
    <rect id="Rectangle_528" data-name="Rectangle 528" width="1.406" height="10.948" transform="translate(71.563 15.099)" fill="#fed9bc"/>
    <path id="Path_83" data-name="Path 83" d="M114.456,35.433A3.61,3.61,0,0,1,111.7,34.3a4.008,4.008,0,0,1-1.063-2.859,4.126,4.126,0,0,1,1.033-2.814,3.352,3.352,0,0,1,2.637-1.177,3.456,3.456,0,0,1,2.668,1.086,4.117,4.117,0,0,1,1,2.906l-.015.259H112.04a2.54,2.54,0,0,0,.756,1.789,2.3,2.3,0,0,0,1.629.658,2.019,2.019,0,0,0,2.049-1.285l1.253.52a3.356,3.356,0,0,1-1.208,1.46,3.512,3.512,0,0,1-2.064.589m2.018-4.893a2,2,0,0,0-.589-1.223,2.1,2.1,0,0,0-1.614-.581,2.017,2.017,0,0,0-1.353.489,2.5,2.5,0,0,0-.788,1.315Z" transform="translate(-36.838 -9.141)" fill="#fed9bc"/>
    <path id="Path_84" data-name="Path 84" d="M129.234,33.585h-1.407V22.637h3.731a3.463,3.463,0,0,1,2.409.925,3.183,3.183,0,0,1,0,4.664,3.46,3.46,0,0,1-2.409.925h-2.324Zm0-5.78h2.355a1.819,1.819,0,0,0,1.422-.6,1.881,1.881,0,0,0,0-2.629,1.816,1.816,0,0,0-1.422-.6h-2.355Z" transform="translate(-42.564 -7.538)" fill="#fed9bc"/>
    <rect id="Rectangle_529" data-name="Rectangle 529" width="1.406" height="10.948" transform="translate(93.337 15.099)" fill="#fed9bc"/>
    <path id="Path_85" data-name="Path 85" d="M146.074,35.434a2.961,2.961,0,0,1-2-.688,2.279,2.279,0,0,1-.8-1.82,2.248,2.248,0,0,1,.949-1.919,3.843,3.843,0,0,1,2.339-.7,4.03,4.03,0,0,1,2.034.459v-.215a1.673,1.673,0,0,0-.566-1.322,2.033,2.033,0,0,0-1.391-.5,2.159,2.159,0,0,0-1.109.29,1.5,1.5,0,0,0-.681.8l-1.284-.55a2.914,2.914,0,0,1,1.025-1.247,3.277,3.277,0,0,1,2.018-.573,3.462,3.462,0,0,1,2.385.841,3,3,0,0,1,.948,2.37v4.526H148.6V34.15h-.061a2.761,2.761,0,0,1-2.463,1.285m.23-1.285a2.291,2.291,0,0,0,1.582-.65,2.013,2.013,0,0,0,.712-1.536,2.774,2.774,0,0,0-1.79-.49,2.33,2.33,0,0,0-1.544.443,1.336,1.336,0,0,0-.52,1.041,1,1,0,0,0,.474.872,1.893,1.893,0,0,0,1.086.321" transform="translate(-47.708 -9.141)" fill="#fed9bc"/>
    <path id="Path_86" data-name="Path 86" d="M156.461,38.613h-1.453l1.744-3.777-3.089-7.019h1.529l2.233,5.384h.031l2.171-5.384h1.529Z" transform="translate(-51.166 -9.263)" fill="#fed9bc"/>
    <path id="Path_87" data-name="Path 87" d="M12.675,24.7q0-5.246,0-10.491a1.571,1.571,0,0,1,.387-1.145c.118-.126.2-.16.348-.012q3.53,3.6,7.07,7.192,2.29,2.327,4.587,4.649c.149.15.161.229,0,.386q-5.626,5.594-11.235,11.2a.386.386,0,0,1-.608.035,1.426,1.426,0,0,1-.554-1.211q0-3.108,0-6.214,0-2.2,0-4.393Z" transform="translate(-4.218 -4.315)" fill="#fed9bc"/>
    <path id="Path_88" data-name="Path 88" d="M14.694,12.522a1.289,1.289,0,0,1,.682.189q7.184,4.025,14.37,8.046c.22.123.215.192.045.36Q28.185,22.7,26.6,24.3c-.115.115-.184.181-.338.024q-5.715-5.829-11.441-11.648c-.031-.032-.058-.071-.123-.151" transform="translate(-4.893 -4.17)" fill="#fed9bc"/>
    <path id="Path_89" data-name="Path 89" d="M16.3,42.756q5.215-5.271,10.423-10.547c.215-.219.316-.189.508.011Q28.554,33.6,29.9,34.943c.158.159.171.223-.043.341q-6.695,3.664-13.382,7.341a2.146,2.146,0,0,0-.179.131" transform="translate(-5.428 -10.675)" fill="#fed9bc"/>
    <path id="Path_90" data-name="Path 90" d="M41.76,29.05a1.1,1.1,0,0,1-.482.878,6.122,6.122,0,0,1-.665.406c-1.349.746-2.7,1.485-4.049,2.236a.3.3,0,0,1-.44-.059q-1.438-1.486-2.9-2.949c-.141-.142-.145-.219,0-.363q1.7-1.674,3.381-3.365A.271.271,0,0,1,37,25.779c1.333.756,2.672,1.5,4.008,2.249a1.227,1.227,0,0,1,.753,1.021" transform="translate(-11.028 -8.564)" fill="#fed9bc"/>
  </g>
</svg>
