<svg xmlns="http://www.w3.org/2000/svg" xmlns:xlink="http://www.w3.org/1999/xlink" width="216.362" height="28.323" viewBox="0 0 216.362 28.323">
  <defs>
    <clipPath id="clip-path">
      <rect id="Rectangle_5" data-name="Rectangle 5" width="216.362" height="28.323" transform="translate(0 0)" fill="none"/>
    </clipPath>
  </defs>
  <g id="logo" transform="translate(0 0)">
    <g id="Group_2" data-name="Group 2" transform="translate(0 0)" clip-path="url(#clip-path)">
      <path id="Path_9" data-name="Path 9" d="M64.171,0a14.089,14.089,0,0,0-13.94,12.09c-.35-.03-.72-.04-1.08-.04a14.346,14.346,0,0,0-1.61.09,14.075,14.075,0,0,0-27.508-1.813L8.65,2.788C5.905.969,2.868,1.3,1.094,3.608A5.367,5.367,0,0,0,.107,7.917L3.534,7.2a1.846,1.846,0,0,1,.335-1.463c.852-1.109,2.15-.5,2.848-.036l12.8,8.477A14.079,14.079,0,0,0,33.591,28.16a14.346,14.346,0,0,0,1.61-.09A14.095,14.095,0,0,0,47.581,15.7a10.278,10.278,0,0,1,1.57-.12c.34,0,.68.02,1.02.05a14.116,14.116,0,0,0,9.45,11.78,13.714,13.714,0,0,0,3.47.71c.35.03.72.04,1.08.04a14.08,14.08,0,1,0,0-28.16M43.7,17.1a10.576,10.576,0,0,1-8.54,7.43,11.72,11.72,0,0,1-1.57.11A10.555,10.555,0,1,1,44.091,13c.03.36.05.72.05,1.08a10.406,10.406,0,0,1-.44,3.02m20.47,7.54c-.34,0-.68-.02-1.02-.05a10.475,10.475,0,0,1-3.78-1.1v-.01a10.591,10.591,0,0,1-5.42-6.74,11.074,11.074,0,0,1-.33-2.66,10.692,10.692,0,0,1,.08-1.27,10.549,10.549,0,1,1,10.47,11.83" fill="#151b27"/>
      <path id="Path_10" data-name="Path 10" d="M80.151,15.043h5.782c0,1.957.9,2.771,2.951,2.771,1.567,0,2.469-.513,2.469-1.626,0-.934-.782-1.447-4.366-2.138-4.607-.934-6.444-2.589-6.444-5.571,0-3.916,2.891-6.145,8.04-6.145,5.451,0,8.221,2.32,8.221,6.927H91.113c0-1.836-.753-2.56-2.68-2.56-1.446,0-2.169.513-2.169,1.506,0,1.294,2.048,1.625,3.976,2.079,4.787,1.113,6.775,2.5,6.775,5.6,0,3.855-3.132,6.324-8.01,6.324-6.054,0-8.854-2.349-8.854-7.167" fill="#151b27"/>
      <path id="Path_11" data-name="Path 11" d="M101.15,17.3V11.069H98.621V7.7l2.529-1.206V2.637h5.632V6.552h3.493v4.517H106.9v5.12c0,1.145.392,1.564,1.837,1.564q.633,0,1.536-.088V22.12c-.813.062-1.565.091-2.258.091-5.211,0-6.867-1.535-6.867-4.909" fill="#151b27"/>
      <path id="Path_12" data-name="Path 12" d="M112.21,15.494V6.552h5.631v8.7c0,2.047.451,2.5,1.807,2.5,1.384,0,1.9-.451,1.9-2.5v-8.7h5.661V21.908h-3.132l-.933-1.836a5.844,5.844,0,0,1-4.789,2.138c-5.449,0-6.142-2.92-6.142-6.716" fill="#151b27"/>
      <path id="Path_13" data-name="Path 13" d="M129.413,14.232c0-3.614,1.115-7.981,5.722-7.981A7.05,7.05,0,0,1,139.5,7.545V.618h5.631V21.909H142l-.994-1.746a6.279,6.279,0,0,1-4.728,2.018c-5.42,0-6.866-4.156-6.866-7.949m10.149,0c0-1.868,0-3.435-2.2-3.435-2.109,0-2.229,1.508-2.229,3.435,0,1.957.12,3.462,2.2,3.462,2.138,0,2.229-1.476,2.229-3.462" fill="#151b27"/>
      <path id="Path_14" data-name="Path 14" d="M147.792,23.324h5.39c0,1.054.3,1.6,1.987,1.6,1.867,0,2.109-1.174,2.109-2.68V20.556a4.354,4.354,0,0,1-3.555,1.505c-5.449,0-5.811-3.043-5.811-6.956V6.552h5.6v8.31c0,2.261.421,2.68,1.807,2.68,1.445,0,1.927-.419,1.927-2.68l.031-8.31h5.631V21.76c0,3.1-1.055,6.564-7.529,6.564-6.113,0-7.588-1.655-7.588-5" fill="#151b27"/>
      <path id="Path_15" data-name="Path 15" d="M172.166,12.273c0-4.818,1.415-9.938,9.064-9.938,6.565,0,8.853,3.254,8.853,6.716h-5.811c-.182-1.295-.9-2.2-3.042-2.2-2.982,0-3.222,2.56-3.222,5.419s.211,5.451,3.191,5.451a3.149,3.149,0,0,0,3.073-3.011h-3.4V10.557h9.245V21.909H186.59l-.873-2.106a5.44,5.44,0,0,1-4.969,2.408c-7.227,0-8.582-5.12-8.582-9.938" fill="#151b27"/>
      <path id="Path_16" data-name="Path 16" d="M192.474,17.724c0-3.433,2.8-4.7,9.967-5.179,0-2.138-.361-2.832-1.987-2.832-1.5,0-1.927.785-1.927,2.229h-5.571c0-2.891,1.536-5.691,7.347-5.691,6.746,0,7.8,3.251,7.8,7.017v8.641h-3.132l-.993-2.106a6.3,6.3,0,0,1-5.481,2.408c-3.343,0-6.023-1.356-6.023-4.487m9.938-2.5-2.289.24c-1.415.211-1.867.964-1.867,1.658,0,.963.542,1.505,1.867,1.505,1.295,0,2.289-1.086,2.289-3.4" fill="#151b27"/>
      <rect id="Rectangle_4" data-name="Rectangle 4" width="5.571" height="21.291" transform="translate(210.791 0.618)" fill="#151b27"/>
    </g>
  </g>
</svg>
